<?xml version="1.0" encoding="UTF-8"?>
<!DOCTYPE svg PUBLIC "-//W3C//DTD SVG 1.1//EN" "http://www.w3.org/Graphics/SVG/1.1/DTD/svg11.dtd">
<svg xmlns="http://www.w3.org/2000/svg" xmlns:xlink="http://www.w3.org/1999/xlink" version="1.1" width="41px" height="55px" viewBox="-0.5 -0.5 41 55"><defs/><g><rect x="0" y="0" width="40" height="54" fill="none" stroke="none" pointer-events="all"/><path d="M 15.79 37.5 C 17.12 37.89 18.49 38.02 19.94 38.02 C 30.07 38.02 37.57 29.79 37.57 20.14 C 37.57 11.77 31.06 2.46 19.69 2.46 C 10.68 2.46 2.42 9.89 2.42 20.7 C 2.78 26.73 5.28 31.04 9.19 34.2 L 14.84 27.61 L 18.7 30.01 Z M 3.58 54 C 1.98 54 0 52.66 0 50.11 L 0 3.96 C 0 1.73 1.69 0 3.73 0 L 36.21 0 C 38.7 0 40 2.18 40 3.76 L 40 50.13 C 40 52.34 38.17 54 36.33 54 Z M 3.53 43.06 C 2.82 44.15 2.38 45.02 2.38 46.08 C 2.38 48.68 4.48 50.31 6.39 50.31 C 8.51 50.31 9.75 49.07 10.57 47.31 L 16.85 30.68 L 15.06 29.63 Z M 6.4 48.23 C 5.46 48.23 4.82 47.44 4.82 46.71 C 4.82 45.5 5.84 45.07 6.32 45.07 C 7.53 45.07 7.94 46.09 7.94 46.63 C 7.94 47.55 7.2 48.23 6.4 48.23 Z M 19.91 25.79 C 16.73 25.79 14.47 23.05 14.47 20.38 C 14.47 16.98 17.09 14.7 19.8 14.7 C 23.1 14.65 25.56 17.28 25.45 20.39 C 25.45 23.18 23.14 25.79 19.91 25.79 Z" fill="#505050" stroke="none" pointer-events="all"/></g></svg>